<?xml version="1.0" encoding="utf-8"?>
<!-- Generator: Adobe Illustrator 16.0.0, SVG Export Plug-In . SVG Version: 6.00 Build 0)  -->
<!DOCTYPE svg PUBLIC "-//W3C//DTD SVG 1.1//EN" "http://www.w3.org/Graphics/SVG/1.1/DTD/svg11.dtd">
<svg version="1.1" id="Layer_1" xmlns="http://www.w3.org/2000/svg" xmlns:xlink="http://www.w3.org/1999/xlink" x="0px" y="0px"
	 width="525px" height="151.5px" viewBox="0 0 525 151.5" enable-background="new 0 0 525 151.5" xml:space="preserve">
<g>
	<g>
		<polygon fill="#FFFFFF" points="65.064,44.539 56.757,49.241 56.757,49.238 		"/>
		<g>
			<g>
				<polygon fill="#FFFFFF" points="53.536,71.513 45.228,76.217 39.88,79.244 31.572,83.945 27.327,76.443 17.556,59.18 
					25.863,54.477 35.635,71.74 40.983,68.713 31.212,51.451 39.521,46.748 49.291,64.01 				"/>
			</g>
			<g>
				<path fill="#FFFFFF" d="M83.09,22.334l-1.58,0.894l-6.073,3.437l-5.229,2.96l-4.935,2.793l-2.717,1.537l14.018,24.765
					l7.652-4.331l-5.195-9.178l5.228-2.958l5.195,9.178l7.653-4.332L83.09,22.334z M75.484,38.948l-1.731-3.058l5.229-2.961
					l1.731,3.059L75.484,38.948z"/>
			</g>
			<polygon fill="#FFFFFF" points="73.952,60.235 70.046,62.447 59.911,68.182 56.327,70.212 52.781,63.949 62.098,58.675 
				60.303,55.505 50.984,60.779 50.902,60.633 47.438,54.515 45.707,51.455 42.161,45.191 50.469,40.489 59.787,35.213 
				63.333,41.479 54.013,46.753 55.745,49.813 56.757,49.241 65.064,44.539 68.609,50.801 70.406,53.972 70.409,53.972 			"/>
			<g>
				
					<rect x="85.036" y="18.266" transform="matrix(0.8702 -0.4927 0.4927 0.8702 2.6523 46.6179)" fill="#FFFFFF" width="9.548" height="0.017"/>
				<polygon fill="#FFFFFF" points="117.304,35.422 99.676,45.399 99.669,45.383 96.131,39.135 89.205,26.897 85.659,20.634 
					93.968,15.93 103.287,10.656 106.833,16.921 97.513,22.195 104.438,34.432 113.759,29.159 				"/>
			</g>
		</g>
		
			<rect x="9.846" y="31.416" transform="matrix(0.8703 -0.4926 0.4926 0.8703 -8.3844 33.3384)" fill="#FFFFFF" width="98.51" height="2.343"/>
		
			<rect x="20.059" y="55.203" transform="matrix(0.8705 -0.4921 0.4921 0.8705 -32.3922 19.5817)" fill="#FFFFFF" width="1.925" height="32.306"/>
		
			<rect x="17.728" y="56.522" transform="matrix(0.8708 -0.4917 0.4917 0.8708 -33.3191 18.5826)" fill="#FFFFFF" width="1.925" height="32.305"/>
		
			<rect x="67.7" y="20.162" transform="matrix(0.8702 -0.4927 0.4927 0.8702 -2.1417 37.1032)" fill="#FFFFFF" width="3.309" height="4.91"/>
		<g>
			
				<rect x="67.24" y="74.218" transform="matrix(0.8692 -0.4945 0.4945 0.8692 -29.2819 46.3562)" fill="#FFFFFF" width="11.477" height="8.613"/>
			
				<rect x="77.31" y="59.963" transform="matrix(0.869 -0.4948 0.4948 0.869 -25.515 50.7504)" fill="#FFFFFF" width="11.572" height="27.207"/>
			
				<rect x="94.616" y="83.786" transform="matrix(0.8691 -0.4947 0.4947 0.8691 -34.9462 60.0042)" fill="#FFFFFF" width="2.519" height="24.46"/>
			
				<rect x="69.92" y="60.026" transform="matrix(0.8691 -0.4946 0.4946 0.8691 -20.127 45.3943)" fill="#FFFFFF" width="11.572" height="1.399"/>
			
				<rect x="23.228" y="76.203" transform="matrix(0.8691 -0.4947 0.4947 0.8691 -31.832 33.5352)" fill="#FFFFFF" width="48.417" height="1.399"/>
			
				<rect x="80.34" y="46.182" transform="matrix(0.8691 -0.4947 0.4947 0.8691 -10.0146 55.922)" fill="#FFFFFF" width="40.609" height="1.399"/>
		</g>
		<g>
			<g>
				
					<rect x="83.011" y="3.227" transform="matrix(0.8705 -0.4923 0.4923 0.8705 7.0571 42.01)" fill="#FFFFFF" width="0.664" height="8.739"/>
				
					<rect x="83.859" y="1.793" transform="matrix(0.8698 -0.4933 0.4933 0.8698 7.7721 42.5335)" fill="#FFFFFF" width="1.262" height="9.49"/>
				
					<rect x="42.873" y="13.087" transform="matrix(0.8703 -0.4926 0.4926 0.8703 1.58 32.9975)" fill="#FFFFFF" width="41.127" height="0.824"/>
				
					<rect x="47.192" y="20.612" transform="matrix(0.8703 -0.4926 0.4926 0.8703 -1.5661 36.0835)" fill="#FFFFFF" width="41.056" height="0.805"/>
			</g>
			
				<rect x="47.664" y="22.498" transform="matrix(0.8652 -0.5013 0.5013 0.8652 -7.1754 27.7327)" fill="#FFFFFF" width="0.675" height="9.432"/>
		</g>
		<g>
			
				<rect x="94.905" y="107.71" transform="matrix(0.8705 -0.4921 0.4921 0.8705 -39.7867 64.6422)" fill="#FFFFFF" width="16.097" height="0.444"/>
			
				<rect x="101.014" y="107.126" transform="matrix(0.8706 -0.4919 0.4919 0.8706 -39.5845 64.2414)" fill="#FFFFFF" width="2.664" height="0.508"/>
		</g>
		<g>
			<g>
				<rect x="45.821" y="131.452" fill="#FFFFFF" width="37.625" height="3.539"/>
				<polygon fill="#FFFFFF" points="57.233,96.436 34.872,149.263 41.193,149.263 62.321,96.315 				"/>
				<polygon fill="#FFFFFF" points="72.19,96.436 94.548,149.263 88.226,149.263 67.101,96.315 				"/>
				<rect x="54.329" y="94.782" fill="#FFFFFF" width="20.435" height="2.27"/>
				<path fill="#FFFFFF" d="M56.389,94.757c0,0,0.307-8.793,0.7-11.962c0.396-3.17,2.628-5.891,6.746-5.892
					c4.346-0.003,6.008,2.621,6.69,5.939c0.673,3.276,0.434,3.105,2.224,12.003L56.389,94.757z"/>
				<ellipse fill="#FFFFFF" cx="63.978" cy="82.985" rx="3.277" ry="2.591"/>
				<g>
					<rect x="63.747" y="80.393" fill="#FFFFFF" width="0.462" height="5.184"/>
					<rect x="60.702" y="82.803" fill="#FFFFFF" width="6.513" height="0.364"/>
				</g>
			</g>
			<defs>
				<filter id="Adobe_OpacityMaskFilter" filterUnits="userSpaceOnUse" x="36.535" y="97.878" width="24.515" height="50.464">
					<feFlood  style="flood-color:white;flood-opacity:1" result="back"/>
					<feBlend  in="SourceGraphic" in2="back" mode="normal"/>
				</filter>
			</defs>
			<mask maskUnits="userSpaceOnUse" x="36.535" y="97.878" width="24.515" height="50.464" id="SVGID_1_">
				<g filter="url(#Adobe_OpacityMaskFilter)">
					<defs>
						<filter id="Adobe_OpacityMaskFilter_1_" filterUnits="userSpaceOnUse" x="36.535" y="97.878" width="24.515" height="50.464">
							<feFlood  style="flood-color:white;flood-opacity:1" result="back"/>
							<feBlend  in="SourceGraphic" in2="back" mode="normal"/>
						</filter>
					</defs>
					<mask maskUnits="userSpaceOnUse" x="36.535" y="97.878" width="24.515" height="50.464" id="SVGID_1_">
						<g filter="url(#Adobe_OpacityMaskFilter_1_)">
						</g>
					</mask>
					
						<radialGradient id="SVGID_2_" cx="14.2876" cy="118.748" r="46.3726" gradientTransform="matrix(1 0 0 0.7912 0 12.5474)" gradientUnits="userSpaceOnUse">
						<stop  offset="0.0022" style="stop-color:#FFFFFF"/>
						<stop  offset="0.1667" style="stop-color:#FCFCFC"/>
						<stop  offset="0.2971" style="stop-color:#F2F2F2"/>
						<stop  offset="0.4159" style="stop-color:#E1E1E1"/>
						<stop  offset="0.5278" style="stop-color:#C9C9C9"/>
						<stop  offset="0.6349" style="stop-color:#ABABAB"/>
						<stop  offset="0.7384" style="stop-color:#858585"/>
						<stop  offset="0.8389" style="stop-color:#595959"/>
						<stop  offset="0.9347" style="stop-color:#272727"/>
						<stop  offset="1" style="stop-color:#000000"/>
					</radialGradient>
					<polygon mask="url(#SVGID_1_)" fill="url(#SVGID_2_)" points="57.602,97.878 36.535,148.342 61.049,98.028 					"/>
				</g>
			</mask>
			<polygon fill="#FFFFFF" points="57.602,97.878 36.535,148.342 61.049,98.028 			"/>
			<defs>
				<filter id="Adobe_OpacityMaskFilter_2_" filterUnits="userSpaceOnUse" x="68.766" y="97.878" width="24.516" height="50.464">
					<feFlood  style="flood-color:white;flood-opacity:1" result="back"/>
					<feBlend  in="SourceGraphic" in2="back" mode="normal"/>
				</filter>
			</defs>
			<mask maskUnits="userSpaceOnUse" x="68.766" y="97.878" width="24.516" height="50.464" id="SVGID_3_">
				<g filter="url(#Adobe_OpacityMaskFilter_2_)">
					<defs>
						<filter id="Adobe_OpacityMaskFilter_3_" filterUnits="userSpaceOnUse" x="68.766" y="97.878" width="24.516" height="50.464">
							<feFlood  style="flood-color:white;flood-opacity:1" result="back"/>
							<feBlend  in="SourceGraphic" in2="back" mode="normal"/>
						</filter>
					</defs>
					<mask maskUnits="userSpaceOnUse" x="68.766" y="97.878" width="24.516" height="50.464" id="SVGID_3_">
						<g filter="url(#Adobe_OpacityMaskFilter_3_)">
						</g>
					</mask>
					
						<radialGradient id="SVGID_4_" cx="233.3057" cy="118.748" r="46.3739" gradientTransform="matrix(-1 0 0 0.7912 348.8359 12.5474)" gradientUnits="userSpaceOnUse">
						<stop  offset="0.0022" style="stop-color:#FFFFFF"/>
						<stop  offset="0.1667" style="stop-color:#FCFCFC"/>
						<stop  offset="0.2971" style="stop-color:#F2F2F2"/>
						<stop  offset="0.4159" style="stop-color:#E1E1E1"/>
						<stop  offset="0.5278" style="stop-color:#C9C9C9"/>
						<stop  offset="0.6349" style="stop-color:#ABABAB"/>
						<stop  offset="0.7384" style="stop-color:#858585"/>
						<stop  offset="0.8389" style="stop-color:#595959"/>
						<stop  offset="0.9347" style="stop-color:#272727"/>
						<stop  offset="1" style="stop-color:#000000"/>
					</radialGradient>
					<polygon mask="url(#SVGID_3_)" fill="url(#SVGID_4_)" points="72.214,97.878 93.282,148.342 68.766,98.028 					"/>
				</g>
			</mask>
			<polygon fill="#FFFFFF" points="72.214,97.878 93.282,148.342 68.766,98.028 			"/>
		</g>
		<path fill-rule="evenodd" clip-rule="evenodd" fill="#FFFFFF" d="M82.264,86.085l-0.062,0.005l-0.011,0.059l-0.048,0.03
			l-0.072,0.006c-0.005-0.018-0.005-0.032-0.005-0.032h-0.029V86.09h0.121l0.026-0.064h0.048l0.056,0.012L82.264,86.085z"/>
		<polygon fill-rule="evenodd" clip-rule="evenodd" fill="#FFFFFF" points="81.953,86.194 81.867,86.201 81.871,86.141 81.91,86.09 
			81.963,86.134 		"/>
		<polygon fill-rule="evenodd" clip-rule="evenodd" fill="#FFFFFF" points="84.254,85.674 84.337,85.538 84.451,85.51 
			84.532,85.546 84.527,85.639 84.35,85.761 84.254,85.761 84.254,85.674 		"/>
		<polygon fill-rule="evenodd" clip-rule="evenodd" fill="#FFFFFF" points="84.482,85.412 84.521,85.35 84.66,85.319 84.694,85.492 
			84.768,85.609 84.815,85.669 84.906,85.699 84.821,85.802 84.658,85.818 84.535,85.818 84.549,85.672 84.65,85.65 84.643,85.584 
			84.547,85.522 84.482,85.477 84.482,85.412 		"/>
		<g>
			<path fill-rule="evenodd" clip-rule="evenodd" fill="#231F20" d="M64.209,79.799c2.288,0,4.145,1.855,4.145,4.145
				c0,2.292-1.856,4.147-4.145,4.147c-2.289,0-4.145-1.855-4.145-4.147C60.064,81.654,61.92,79.799,64.209,79.799L64.209,79.799z"/>
			<path fill-rule="evenodd" clip-rule="evenodd" fill="#FFFFFF" d="M64.288,79.987c1.026,0,1.961,0.39,2.663,1.03l-0.146,0.056
				l-0.08,0.086l0.019,0.098l0.096,0.014l0.058,0.146l0.167-0.068l0.026,0.194h-0.048l-0.137-0.02l-0.151,0.026l-0.146,0.206
				l-0.21,0.033l-0.028,0.177l0.089,0.023l-0.026,0.114l-0.207-0.043l-0.191,0.043l-0.04,0.106l0.032,0.22l0.113,0.054l0.187-0.002
				l0.125-0.009l0.042-0.103l0.197-0.257l0.129,0.027l0.127-0.116l0.024,0.089l0.315,0.213l-0.039,0.055l-0.141-0.011l0.055,0.08
				l0.086,0.019l0.103-0.045l-0.001-0.122l0.044-0.021l-0.036-0.041l-0.211-0.118l-0.055-0.155h0.174l0.056,0.056l0.152,0.129
				l0.007,0.156l0.156,0.169l0.058-0.229l0.108-0.061l0.019,0.188l0.105,0.115h0.043c0.044,0.111,0.083,0.225,0.118,0.337h-0.186
				l-0.197-0.146l-0.206,0.02v0.126h-0.066l-0.069-0.051l-0.359-0.09v-0.232l-0.453,0.036l-0.142,0.073h-0.18l-0.086-0.005
				l-0.219,0.12v0.228l-0.448,0.321l0.037,0.137h0.09l-0.024,0.134l-0.062,0.023l-0.004,0.343l0.386,0.439h0.169l0.009-0.027h0.302
				l0.087-0.081h0.171l0.096,0.097l0.255,0.024l-0.035,0.34l0.284,0.501l-0.151,0.285l0.013,0.134l0.118,0.117v0.323l0.153,0.206
				v0.206c-0.726,0.9-1.836,1.476-3.083,1.476c-2.048,0-3.733-1.557-3.938-3.554l0,0c-0.002-0.029-0.006-0.063-0.007-0.094v-0.001
				c-0.01-0.102-0.011-0.205-0.011-0.312v-0.024v-0.046l0.001-0.058l0.002-0.059v-0.031c0.003-0.027,0.003-0.051,0.005-0.075
				l0.002-0.02c0.033-0.442,0.142-0.863,0.311-1.255v0.216l0.167,0.084v0.318l0.161,0.274l0.129,0.021l0.017-0.095l-0.154-0.239
				l-0.03-0.229h0.091l0.039,0.238l0.224,0.325l-0.058,0.104l0.142,0.217l0.354,0.089v-0.056l0.139,0.021l-0.013,0.101l0.112,0.02
				l0.171,0.047l0.242,0.276l0.308,0.023l0.031,0.251l-0.211,0.148l-0.01,0.226l-0.031,0.136l0.306,0.383l0.023,0.131
				c0,0,0.111,0.03,0.125,0.03c0.012,0,0.248,0.181,0.248,0.181v0.689l0.084,0.023l-0.059,0.32l0.143,0.188l-0.027,0.317
				l0.188,0.326l0.237,0.211l0.242,0.001l0.023-0.077l-0.178-0.149l0.012-0.071l0.032-0.092l0.005-0.092l-0.119-0.005l-0.061-0.075
				l0.099-0.096l0.015-0.071l-0.111-0.031l0.004-0.067l0.16-0.022l0.24-0.116l0.079-0.149l0.253-0.323l-0.059-0.252l0.079-0.131
				l0.231,0.005l0.157-0.122l0.05-0.486l0.174-0.223l0.028-0.139l-0.157-0.051l-0.106-0.173l-0.356-0.001l-0.281-0.109l-0.015-0.204
				l-0.093-0.161l-0.255-0.003l-0.146-0.233l-0.133-0.063l-0.006,0.068l-0.238,0.016l-0.087-0.121l-0.25-0.052l-0.204,0.239
				l-0.322-0.055l-0.023-0.365l-0.236-0.04l0.096-0.177l-0.029-0.104l-0.307,0.207l-0.195-0.023l-0.07-0.154l0.043-0.155
				l0.105-0.197l0.247-0.125h0.477v0.146l0.17,0.077l-0.015-0.246l0.125-0.123l0.247-0.165l0.02-0.115l0.249-0.258l0.263-0.147
				l-0.023-0.02l0.18-0.166l0.064,0.015l0.029,0.038l0.07-0.073l0.017-0.009l-0.076-0.012l-0.075-0.022v-0.076l0.041-0.029
				l0.089-0.005l0.038,0.02l0.037,0.073l0.042-0.008v-0.006l0.013,0.003l0.122-0.018l0.019-0.064l0.07,0.02v0.065l-0.065,0.046l0,0
				l0.011,0.073l0.222,0.068c0,0,0,0,0,0.001l0.053-0.003l0.002-0.095l-0.177-0.082l-0.01-0.049l0.146-0.048l0.007-0.141
				l-0.154-0.095L64.299,81.2l-0.212,0.103H64.01l0.019-0.18l-0.289-0.067l-0.117,0.089v0.275l-0.215,0.066l-0.086,0.177
				l-0.094,0.02v-0.231l-0.199-0.026l-0.1-0.067l-0.042-0.146l0.359-0.212l0.177-0.052l0.017,0.117l0.099-0.005l0.007-0.061
				l0.103-0.014l0.002-0.023l-0.045-0.015l-0.01-0.063l0.127-0.013l0.078-0.081l0.002-0.004h0.002l0.022-0.024l0.266-0.031
				l0.115,0.097l-0.307,0.165l0.391,0.094l0.051-0.131h0.17l0.063-0.114l-0.123-0.03v-0.144l-0.376-0.169l-0.263,0.029l-0.148,0.077
				l0.01,0.191l-0.154-0.026l-0.024-0.103l0.15-0.135l-0.27-0.015l-0.077,0.023l-0.033,0.089l0.1,0.021l-0.021,0.099l-0.17,0.012
				l-0.026,0.066l-0.248,0.006c0,0-0.007-0.141-0.017-0.141s0.195-0.005,0.195-0.005l0.146-0.143l-0.08-0.042L63.04,80.61
				L62.861,80.6l-0.108-0.148h-0.228l-0.239,0.179h0.219l0.02,0.063l-0.056,0.055l0.24,0.006l0.039,0.088l-0.273-0.011l-0.013-0.068
				l-0.17-0.037l-0.091-0.05h-0.147C62.689,80.241,63.458,79.987,64.288,79.987L64.288,79.987z"/>
		</g>
	</g>
	
		<rect x="99.383" y="107.498" transform="matrix(0.8663 -0.4995 0.4995 0.8663 -43.3832 69.1652)" fill="#FFFFFF" width="16.253" height="16.251"/>
	<g>
		<path fill="#FFFFFF" d="M54.216,27.298l-0.886,0.508l-0.85-1.109l-1.01,0.578l0.524,1.294l-0.89,0.51L49,23.11l1.14-0.652
			L54.216,27.298z M51.883,25.967l-1.693-2.112l-0.013,0.008l0.965,2.528L51.883,25.967z"/>
		<path fill="#FFFFFF" d="M56.477,24.267c0.245,0.426,0.308,0.838,0.188,1.237c-0.127,0.399-0.41,0.725-0.851,0.977
			c-0.407,0.234-0.826,0.274-1.253,0.121c-0.39-0.139-0.717-0.414-0.983-0.826l0.807-0.629c0.346,0.522,0.684,0.69,1.011,0.502
			c0.355-0.204,0.439-0.47,0.251-0.801c-0.163-0.283-0.491-0.485-0.986-0.608c-0.307-0.065-0.761-0.167-1.367-0.309
			c-0.534-0.175-0.926-0.482-1.177-0.922c-0.251-0.436-0.312-0.843-0.181-1.223c0.059-0.189,0.156-0.36,0.292-0.51
			s0.319-0.29,0.545-0.42c0.377-0.216,0.753-0.261,1.126-0.134c0.345,0.116,0.643,0.352,0.896,0.708l-0.819,0.607
			c-0.251-0.388-0.527-0.496-0.831-0.322c-0.306,0.175-0.358,0.437-0.158,0.786c0.141,0.246,0.46,0.427,0.958,0.542
			c0.302,0.071,0.55,0.128,0.744,0.175c0.192,0.047,0.403,0.097,0.633,0.152C55.854,23.549,56.238,23.848,56.477,24.267z"/>
		<path fill="#FFFFFF" d="M57.354,19.402l-0.889,0.508l2.629,4.598l-0.919,0.526l-2.63-4.597l-0.89,0.508l-0.463-0.806l2.7-1.544
			L57.354,19.402z"/>
		<path fill="#FFFFFF" d="M63.239,22.138l-0.935,0.534l-1.935-1.861c-0.115,0.083-0.269,0.182-0.461,0.292l1.267,2.215l-0.92,0.526
			l-3.09-5.404l1.292-0.739c0.272-0.157,0.526-0.258,0.759-0.308c0.235-0.049,0.45-0.043,0.646,0.018
			c0.396,0.119,0.75,0.449,1.062,0.992c0.409,0.718,0.455,1.294,0.136,1.734L63.239,22.138z M60.004,18.928
			c-0.166-0.29-0.325-0.47-0.479-0.542c-0.181-0.086-0.406-0.05-0.679,0.105l-0.325,0.186l0.949,1.662l0.326-0.187
			c0.27-0.155,0.415-0.333,0.433-0.536C60.247,19.451,60.172,19.221,60.004,18.928z"/>
		<path fill="#FFFFFF" d="M66.119,18.751c0.246,0.429,0.313,0.839,0.202,1.229c-0.112,0.391-0.384,0.71-0.818,0.958
			c-0.43,0.247-0.843,0.32-1.237,0.219c-0.396-0.101-0.715-0.366-0.962-0.795l-1.589-2.781c-0.247-0.432-0.315-0.844-0.201-1.235
			s0.386-0.71,0.816-0.955c0.433-0.25,0.848-0.323,1.24-0.221c0.393,0.103,0.713,0.369,0.96,0.8L66.119,18.751z M65.185,19.252
			l-1.563-2.733c-0.229-0.401-0.507-0.508-0.833-0.321c-0.327,0.186-0.375,0.48-0.145,0.881l1.563,2.732
			c0.23,0.4,0.506,0.507,0.832,0.321C65.366,19.946,65.414,19.651,65.185,19.252z"/>
		<path fill="#FFFFFF" d="M70.642,17.901l-0.799,0.458l-3.107-2.709l-0.015,0.008l1.935,3.381l-0.829,0.474l-3.092-5.403
			l0.851-0.487l2.89,2.448l0.015-0.007l-1.768-3.092l0.829-0.474L70.642,17.901z"/>
		<path fill="#FFFFFF" d="M73.672,14.43c0.246,0.43,0.313,0.84,0.202,1.23c-0.112,0.391-0.385,0.71-0.818,0.958
			c-0.43,0.246-0.843,0.318-1.238,0.217c-0.395-0.1-0.716-0.365-0.961-0.794l-1.591-2.78c-0.248-0.432-0.314-0.844-0.2-1.235
			c0.114-0.392,0.386-0.711,0.815-0.957c0.435-0.249,0.848-0.322,1.241-0.22c0.394,0.102,0.712,0.369,0.959,0.801L73.672,14.43z
			 M72.738,14.93l-1.564-2.733c-0.229-0.4-0.506-0.508-0.831-0.321c-0.326,0.187-0.374,0.48-0.146,0.881l1.563,2.733
			c0.23,0.4,0.506,0.507,0.832,0.321C72.918,15.624,72.967,15.332,72.738,14.93z"/>
		<path fill="#FFFFFF" d="M79.047,13.095l-0.801,0.457L75.83,9.329l-0.014,0.007l1.583,4.7l-0.444,0.254l-3.246-3.749l-0.014,0.007
			l2.417,4.224l-0.8,0.457L72.22,9.827l1.209-0.691l2.458,2.784l0.014-0.008l-1.155-3.529l1.209-0.692L79.047,13.095z"/>
		<path fill="#FFFFFF" d="M79.667,5.567c0.056,0.342,0.107,0.668,0.152,0.979c0.047,0.31,0.094,0.625,0.144,0.945
			c0.128,0.817,0.261,1.44,0.4,1.867l1.285,2.247l-0.919,0.527l-1.286-2.249c-0.101-0.108-0.216-0.226-0.345-0.352
			c-0.131-0.126-0.306-0.286-0.525-0.479c-0.219-0.193-0.398-0.346-0.536-0.46c-0.251-0.204-0.526-0.427-0.82-0.667
			c-0.293-0.24-0.524-0.427-0.691-0.562L77.46,6.83l1.822,1.691l0.015-0.009l-0.562-2.411L79.667,5.567z"/>
	</g>
</g>
<g>
	<g>
		<polygon fill="#FFFFFF" points="181.887,105.119 167.065,105.128 157.525,105.131 142.707,105.133 142.702,91.753 142.69,60.958 
			157.511,60.951 157.521,91.748 167.063,91.741 167.051,60.949 181.871,60.942 181.884,91.738 		"/>
	</g>
	<g>
		<path fill="#FFFFFF" d="M259.406,61.245l-2.817,0.001l-10.833,0.003l-9.331,0.004l-8.801,0.003l-4.848,0.001l0.019,44.181
			l13.65-0.006l-0.006-16.375l9.326-0.003l0.008,16.375l13.649-0.007L259.406,61.245z M236.434,77.886l-0.003-5.458l9.329-0.004
			v5.455L236.434,77.886z"/>
	</g>
	<polygon fill="#FFFFFF" points="218.097,105.479 211.125,105.485 193.046,105.49 186.651,105.491 186.647,94.319 203.269,94.313 
		203.265,88.657 186.641,88.662 186.641,88.405 186.636,77.487 186.633,72.031 186.631,60.856 201.45,60.85 218.075,60.842 
		218.079,72.019 201.455,72.023 201.457,77.481 203.26,77.481 218.08,77.476 218.085,88.648 218.088,94.309 218.094,94.309 	"/>
	<g>
		<rect x="264.178" y="60.88" fill="#FFFFFF" width="14.822" height="0.028"/>
		<polygon fill="#FFFFFF" points="295.642,105.079 264.193,105.09 264.197,105.063 264.19,93.914 264.185,72.085 264.178,60.912 
			279,60.905 295.62,60.898 295.625,72.073 279.005,72.079 279.009,93.907 295.637,93.9 		"/>
	</g>
</g>
</svg>
